<svg width="55" height="55" viewBox="0 0 55 55" fill="none" xmlns="http://www.w3.org/2000/svg">
<path d="M28.029 15.0116C27.919 15.1216 28.9773 16.0187 28.9773 16.0187L28.029 15.0116L25.1892 13.7362L23.8692 13.1862L21.8617 12.3062C20.0742 11.5087 19.7992 11.4537 19.2767 11.8112C18.9467 12.0312 15.6742 14.8362 11.9617 18.0537C7.56172 21.8762 5.22422 24.0762 5.22422 24.4337C5.22422 24.8187 6.02172 25.2862 8.79922 26.4962L12.3742 28.0637L8.66172 28.2012L4.94922 28.3387V37.1112V45.8562L13.0067 49.4037L21.0917 52.9512L35.4192 52.8962L49.7742 52.8137V44.0137V35.2412L47.1617 34.0587C45.7317 33.3987 44.0542 32.6562 43.4492 32.4087L42.3492 31.9137L46.0617 31.7762C49.1692 31.6662 49.7742 31.5562 49.8567 31.1987C49.9667 30.5937 36.2717 18.6312 34.5667 17.8612C33.5492 17.3937 32.0711 16.7648 32.0711 16.7648L30.5517 16.0187C30.3042 15.9912 28.139 14.9016 28.029 15.0116ZM43.5592 26.8537L47.7942 30.5387L41.5517 30.6212C38.1417 30.6487 32.5317 30.6487 29.1217 30.6212L22.9342 30.5387L29.2042 25.1212L35.4742 19.7312L37.3992 21.4362C38.4442 22.3712 41.2217 24.8187 43.5592 26.8537ZM18.3142 30.6762L20.8442 31.7762H29.8092H38.7742L42.4592 33.3437L46.1717 34.9387L33.7142 35.0212L21.2567 35.0762L15.1792 32.4362C11.8242 30.9787 9.01922 29.7412 8.96422 29.6862C8.90922 29.6312 10.3942 29.5762 12.3192 29.5762C15.7567 29.5762 15.8117 29.5762 18.3142 30.6762ZM48.8117 44.0137V51.5762H44.6867H40.5617V45.2787C40.5617 41.8137 40.5617 41.1603 40.5617 41.1603H36.0242H31.7617V44.8387V51.5762H26.6742H21.5867V44.0137V36.4512H35.1992H48.8117V44.0137ZM39.1867 45.3887L39.393 52.8733L32.8617 52.906V51.5762V45.3887V42.1915H35.9967H39.1867V45.3887Z" fill="#6F00F8"/>
</svg>
