<svg width="41" height="38" viewBox="0 0 41 38" fill="none" xmlns="http://www.w3.org/2000/svg">
<path d="M21.0712 3.13482C20.9708 3.2359 21.9371 4.06024 21.9371 4.06024L21.0712 3.13482L18.4786 1.9627L17.2735 1.45727L15.4407 0.648575C13.8087 -0.0843012 13.5577 -0.134844 13.0806 0.193687C12.7794 0.39586 9.79165 2.97356 6.40223 5.93034C2.38515 9.44309 0.251068 11.4648 0.251068 11.7933C0.251068 12.1472 0.979164 12.5768 3.51495 13.6887L6.77884 15.1292L3.38942 15.2556L0 15.3819V23.4436V31.4799L7.35629 34.74L14.7377 38L27.8183 37.9495L40.9241 37.8736V29.7867V21.7251L38.5389 20.6384C37.2334 20.0319 35.7019 19.3496 35.1495 19.1221L34.1452 18.6672L37.5347 18.5409C40.3717 18.4398 40.9241 18.3387 40.9994 18.0102C41.0998 17.4542 28.5966 6.46104 27.04 5.75344C26.1111 5.32382 24.7616 4.74588 24.7616 4.74588L23.3744 4.06024C23.1485 4.03497 21.1717 3.03373 21.0712 3.13482ZM35.2499 14.0173L39.1164 17.4036L33.4171 17.4795C30.3039 17.5047 25.1821 17.5047 22.0689 17.4795L16.4198 17.4036L22.1442 12.4251L27.8685 7.47191L29.626 9.03875C30.5801 9.89798 33.1159 12.1472 35.2499 14.0173ZM12.2019 17.53L14.5117 18.5409H22.6965H30.8814L34.2457 19.9813L37.6351 21.4471L26.2617 21.5229L14.8883 21.5735L9.33973 19.1474C6.2767 17.808 3.71581 16.6708 3.66559 16.6202C3.61538 16.5697 4.97115 16.5191 6.72862 16.5191C9.86697 16.5191 9.91718 16.5191 12.2019 17.53ZM40.0453 29.7867V36.7364H36.2793H32.5133V30.9492C32.5133 27.765 32.5133 27.1646 32.5133 27.1646H28.3707H24.4791V30.5449V36.7364H19.8344H15.1896V29.7867V22.837H27.6175H40.0453V29.7867ZM31.258 31.0503L31.4463 37.9285L25.4834 37.9585V36.7364V31.0503V28.1122H28.3456H31.258V31.0503Z" fill="#261B37"/>
</svg>
